<?xml version="1.0" encoding="utf-8"?>
<!-- Generator: Adobe Illustrator 20.1.0, SVG Export Plug-In . SVG Version: 6.00 Build 0)  -->
<svg version="1.1" id="Layer_1" xmlns="http://www.w3.org/2000/svg" xmlns:xlink="http://www.w3.org/1999/xlink" x="0px" y="0px"
	 viewBox="0 0 594 138" style="enable-background:new 0 0 594 138;" xml:space="preserve">
<style type="text/css">
	.st0{fill:#13406D;}
	.st1{fill:#FF7700;}
</style>
<g>
	<path class="st0" d="M26.7,57.6H13.9l7.8-37.3H11.3l2.3-10.6h33.7L45,20.3H34.5L26.7,57.6z"/>
	<path class="st0" d="M60.8,40.2l-3.7,17.4H44.3L54.4,9.7h12.7c5.5,0,9.7,1.1,12.6,3.3s4.4,5.5,4.4,9.9c0,3.4-0.8,6.4-2.3,8.9
		s-3.9,4.5-6.9,5.8l7.3,16.9l1.3,3.1h-14l-6.4-17.4C63.1,40.2,60.8,40.2,60.8,40.2z M62.9,30.4h1.7c2.1,0,3.7-0.6,4.9-1.8
		c1.2-1.2,1.8-2.9,1.8-5c0-1.4-0.4-2.4-1.1-3.1c-0.8-0.7-1.9-1.1-3.3-1.1h-1.7L62.9,30.4z"/>
	<path class="st0" d="M134.3,9.7l-6.5,30.5c-1.3,6.1-3.7,10.7-7.4,13.6c-3.6,2.9-8.6,4.4-14.8,4.4c-2.9,0-5.5-0.6-7.7-1.8
		s-4-2.9-5.2-5c-1.2-2.2-1.8-4.6-1.8-7.2c0-1.4,0.1-2.8,0.4-4.2l6.5-30.2h12.8l-6.4,29.9c-0.3,1.5-0.5,2.7-0.5,3.8
		c0,2.8,1.3,4.2,4,4.2c2.1,0,3.7-0.7,4.8-2.1c1.2-1.4,2.1-3.6,2.7-6.5l6.3-29.3h12.8V9.7z"/>
	<path class="st0" d="M162.7,19.6c-2.4,0-4.5,0.9-6.4,2.6s-3.4,4.1-4.5,7c-1.1,3-1.6,6.2-1.6,9.7c0,2.9,0.6,5.1,1.8,6.6
		c1.2,1.4,3,2.2,5.3,2.2c1.8,0,3.6-0.2,5.5-0.7c1.9-0.4,4-1.2,6.6-2.3v10.6c-4.4,2-9.2,2.9-14.4,2.9c-5.7,0-10.1-1.6-13.1-4.9
		c-3.1-3.2-4.6-7.8-4.6-13.8c0-5.8,1.1-11.1,3.3-16s5.2-8.5,9-11s8.2-3.7,13.1-3.7c5.8,0,11,1.4,15.8,4.3l-4.8,10
		c-2-1.2-3.9-2.1-5.6-2.7C166.3,19.9,164.6,19.6,162.7,19.6z"/>
	<path class="st0" d="M216.8,57.6h-14.4l-5.7-18.9l-3.2,1.8L190,57.6h-12.8l10.1-47.9h12.8l-4.4,20.4l1.2-1.9
		c1.9-3.1,3.3-5.3,4.3-6.4L211,9.7h15l-18.1,22.1L216.8,57.6z"/>
	<path class="st0" d="M250.5,57.6h-28.4l10.1-47.9h28.4l-2.1,10.4h-15.6l-1.5,7.5h14.5L253.6,38H239l-1.9,9h15.6L250.5,57.6z"/>
	<path class="st0" d="M276.3,40.2l-3.7,17.4h-12.8l10.1-47.9h12.7c5.5,0,9.7,1.1,12.6,3.3s4.4,5.5,4.4,9.9c0,3.4-0.8,6.4-2.3,8.9
		s-3.9,4.5-6.9,5.8l7.3,16.9l1.3,3.1h-14l-6.4-17.4C278.6,40.2,276.3,40.2,276.3,40.2z M278.4,30.4h1.7c2.1,0,3.7-0.6,4.9-1.8
		c1.2-1.2,1.8-2.9,1.8-5c0-1.4-0.4-2.4-1.1-3.1c-0.8-0.7-1.9-1.1-3.3-1.1h-1.7L278.4,30.4z"/>
	<path class="st0" d="M334.3,42.9c0,4.8-1.6,8.6-4.8,11.3c-3.2,2.7-7.7,4-13.4,4c-2.4,0-4.7-0.3-6.8-0.8c-2.1-0.5-4-1.3-5.5-2.3
		V43.6c1.8,1.2,3.9,2.1,6.3,2.9c2.4,0.8,4.5,1.2,6.4,1.2c1.6,0,2.8-0.3,3.7-1c0.8-0.7,1.2-1.6,1.2-2.9c0-0.6-0.1-1.1-0.4-1.7
		c-0.3-0.5-0.6-1-1.1-1.5s-1.8-1.6-3.9-3.4c-2.6-2.1-4.4-4.2-5.6-6.3s-1.7-4.5-1.7-7c0-2.9,0.7-5.4,2.1-7.7s3.5-4.1,6.1-5.3
		c2.6-1.3,5.5-1.9,8.8-1.9c5.2,0,9.9,1.2,14.1,3.5l-4.4,9.7c-3.7-1.9-6.9-2.9-9.5-2.9c-1.4,0-2.5,0.3-3.2,0.9
		c-0.8,0.6-1.1,1.5-1.1,2.7c0,1.1,0.4,2.1,1.1,3s2.1,2.2,4.2,3.7c2.6,1.9,4.5,3.9,5.7,6C333.7,37.8,334.3,40.2,334.3,42.9z"/>
	<path class="st0" d="M23.8,94.3l-3.7,17.4H7.3l10.1-47.9h12.7c5.5,0,9.7,1.1,12.6,3.3c2.9,2.2,4.4,5.5,4.4,9.9
		c0,3.4-0.8,6.4-2.3,8.9c-1.6,2.5-3.9,4.5-6.9,5.8l7.3,16.9l1.3,3.1h-14l-6.4-17.4C26.1,94.3,23.8,94.3,23.8,94.3z M25.9,84.6h1.7
		c2.1,0,3.7-0.6,4.9-1.8c1.2-1.2,1.8-2.9,1.8-5c0-1.4-0.4-2.4-1.1-3.1c-0.8-0.7-1.9-1.1-3.3-1.1h-1.7L25.9,84.6z"/>
	<path class="st0" d="M79.3,111.8H50.9L61,63.9h28.4l-2.1,10.4H71.7l-1.5,7.5h14.5l-2.4,10.4H67.8l-1.9,9h15.6L79.3,111.8z"/>
	<path class="st0" d="M128.5,78.2c0,5.5-1.9,9.8-5.6,13c-3.7,3.1-8.9,4.7-15.4,4.7h-2.8l-3.3,15.9H88.6l10.1-47.9h12.2
		c5.7,0,10,1.2,13,3.7C127,70.1,128.5,73.6,128.5,78.2z M107,85.4h2.1c2,0,3.6-0.6,4.8-1.9c1.2-1.3,1.8-2.9,1.8-4.9
		c0-1.3-0.4-2.3-1.2-3.1c-0.8-0.8-1.9-1.2-3.2-1.2h-1.9L107,85.4z"/>
	<path class="st0" d="M158.7,63.1c5.7,0,10.1,1.6,13.3,4.9c3.2,3.2,4.7,7.8,4.7,13.6c0,5.8-1.1,11.1-3.3,15.9s-5.2,8.5-9,11.1
		s-8.3,3.8-13.3,3.8c-5.9,0-10.4-1.6-13.6-4.9c-3.2-3.3-4.8-7.8-4.8-13.6s1.1-11.1,3.4-16c2.3-4.8,5.3-8.5,9.2-11.1
		C149.2,64.4,153.6,63.1,158.7,63.1z M163.7,81.7c0-2.5-0.5-4.4-1.6-5.8c-1-1.4-2.6-2.1-4.6-2.1c-2.2,0-4.2,0.9-6,2.8
		c-1.8,1.8-3.3,4.4-4.3,7.6c-1.1,3.2-1.6,6.5-1.6,9.9c0,5.3,2.2,7.9,6.6,7.9c2.1,0,4-0.9,5.8-2.7c1.8-1.8,3.2-4.3,4.2-7.3
		C163.2,88.7,163.7,85.3,163.7,81.7z"/>
	<path class="st0" d="M196.3,94.3l-3.7,17.4h-12.8L190,63.9h12.7c5.5,0,9.7,1.1,12.6,3.3c2.9,2.2,4.4,5.5,4.4,9.9
		c0,3.4-0.8,6.4-2.3,8.9s-3.9,4.5-6.9,5.8l7.3,16.9l1.3,3.1h-14l-6.4-17.4h-2.4L196.3,94.3L196.3,94.3z M198.4,84.6h1.7
		c2.1,0,3.7-0.6,4.9-1.8c1.2-1.2,1.8-2.9,1.8-5c0-1.4-0.4-2.4-1.1-3.1c-0.8-0.7-1.9-1.1-3.3-1.1h-1.7L198.4,84.6z"/>
	<path class="st0" d="M242.9,111.8h-12.8l7.8-37.3h-10.4l2.3-10.6h33.7l-2.3,10.6h-10.4L242.9,111.8z"/>
</g>
<g>
	<path class="st1" d="M277,114.9c-0.4,2.3-0.9,4.4-1.6,6.3c-0.6,1.9-1.5,3.6-2.7,5s-2.5,2.5-4.2,3.3c-1.7,0.8-3.8,1.2-6.3,1.2
		c-1.7,0-3.3-0.2-4.6-0.7c-1.4-0.5-2.6-1.1-3.6-2c-1-0.8-1.9-1.8-2.5-2.9c-0.7-1.1-1.2-2.3-1.5-3.6l8.6-3.8c0.2,0.9,0.6,1.7,1.2,2.4
		c0.6,0.7,1.4,1,2.5,1c1.5,0,2.6-0.6,3.3-1.9c0.6-1.2,1.1-3,1.5-5.2l8.7-49.3H286L277,114.9z"/>
	<path class="st1" d="M315.4,89.5c0,3-0.4,5.9-1.1,8.7c-0.8,2.8-1.8,5.3-3.3,7.4c-1.4,2.1-3.2,3.9-5.3,5.2s-4.5,2-7.2,2
		c-3.9,0-6.8-1.2-9-3.7s-3.2-5.7-3.2-9.8c0-3,0.4-5.8,1.2-8.6c0.8-2.8,1.9-5.3,3.4-7.4c1.5-2.2,3.3-3.9,5.4-5.2
		c2.1-1.3,4.5-1.9,7.2-1.9c3.8,0,6.8,1.2,8.9,3.7C314.4,82.2,315.4,85.5,315.4,89.5z M306,90.3c0-1.8-0.3-3.2-0.8-4.3
		c-0.6-1.1-1.5-1.6-2.7-1.6c-1.1,0-2.1,0.5-2.9,1.5s-1.5,2.2-2.1,3.6s-1,3-1.3,4.6s-0.4,3.2-0.4,4.5c0,1.7,0.3,3.1,0.8,4.2
		s1.4,1.6,2.6,1.6c1.1,0,2.1-0.5,3-1.4c0.9-1,1.6-2.1,2.2-3.6c0.6-1.4,1-2.9,1.3-4.6C305.9,93.2,306,91.7,306,90.3z"/>
	<path class="st1" d="M349.8,88.4c0,2.7-0.3,5.6-1,8.4c-0.6,2.9-1.6,5.5-2.8,7.8c-1.2,2.3-2.8,4.3-4.6,5.8c-1.8,1.5-3.9,2.3-6.3,2.3
		c-2.1,0-3.7-0.5-4.8-1.6s-1.8-2.4-2.1-3.9H328l-0.7,4.4h-9.2l8.7-50.2h9.6L332.9,81h0.3c0.6-1.4,1.6-2.5,2.9-3.5s2.9-1.4,4.6-1.4
		c1.5,0,2.9,0.3,4.1,0.9s2.1,1.5,2.9,2.6s1.3,2.4,1.7,3.9C349.6,85,349.8,86.6,349.8,88.4z M340.1,90.1c0-1.7-0.3-3.1-0.8-4.1
		s-1.4-1.6-2.7-1.6c-1.1,0-2.1,0.5-2.9,1.5s-1.5,2.2-2.1,3.6s-1,2.9-1.3,4.6s-0.4,3.1-0.4,4.5c0,1.7,0.3,3.1,0.8,4.2
		s1.4,1.6,2.7,1.6c1.1,0,2.1-0.5,2.9-1.5s1.5-2.2,2.1-3.6s1-3,1.3-4.6C340,93,340.1,91.5,340.1,90.1z"/>
	<path class="st1" d="M392.5,76.8c0,3.6-0.8,6.6-2.4,9s-3.8,4.1-6.5,5l5.2,20.9H378l-3.9-18.9h-3.5l-3.3,18.9h-9.8l8.2-47h13.8
		c4.2,0,7.3,1,9.6,3C391.4,69.7,392.5,72.7,392.5,76.8z M382.3,78.1c0-1.8-0.5-3.1-1.5-3.8c-1-0.7-2.1-1.1-3.3-1.1H374l-2.1,12.3
		h3.3c1.9,0,3.6-0.6,5-1.9C381.6,82.4,382.3,80.6,382.3,78.1z"/>
	<path class="st1" d="M421,88.3c0,0.9-0.1,2-0.2,3.5c-0.1,1.4-0.4,3.1-0.8,5h-17.3c-0.1,0.9-0.2,1.6-0.2,2.2c0,1.5,0.3,2.8,1,3.8
		s1.7,1.5,3,1.5c1.2,0,2.2-0.4,3-1.2c0.8-0.8,1.5-1.6,2.1-2.6l6.6,4.3c-1.2,2.2-2.9,4.1-5,5.6c-2.2,1.5-4.8,2.3-7.8,2.3
		c-3.9,0-6.9-1.2-9-3.6s-3.2-5.8-3.2-10.1c0-3.1,0.4-6,1.3-8.8c0.8-2.8,2-5.2,3.5-7.3c1.5-2.1,3.2-3.8,5.3-5c2-1.2,4.2-1.8,6.6-1.8
		c2,0,3.7,0.3,5.1,0.9s2.6,1.5,3.5,2.6s1.5,2.4,2,3.9C420.7,84.9,421,86.5,421,88.3z M412.5,88.1c0-1.4-0.3-2.5-0.8-3.4
		c-0.5-0.8-1.3-1.2-2.4-1.2c-0.8,0-1.4,0.2-2.1,0.7c-0.6,0.4-1.2,1-1.6,1.7c-0.5,0.7-0.9,1.5-1.2,2.3c-0.3,0.8-0.6,1.7-0.7,2.5h8.4
		c0.1-0.3,0.2-0.7,0.2-1.2C412.5,88.9,412.5,88.5,412.5,88.1z"/>
	<path class="st1" d="M440.4,111.7h-12l-2.5-34.5h9.6l0.8,24.4h0.2l8.9-24.4h10.2L440.4,111.7z"/>
	<path class="st1" d="M463.4,111.7h-9.7l6-34.5h9.7L463.4,111.7z M471.6,66.7c0,0.9-0.2,1.7-0.5,2.5s-0.7,1.5-1.3,2s-1.2,1-1.9,1.4
		s-1.5,0.5-2.4,0.5c-1.5,0-2.7-0.5-3.6-1.5c-0.8-1-1.3-2.1-1.3-3.4c0-0.8,0.1-1.6,0.4-2.4s0.7-1.5,1.2-2.1s1.2-1.1,1.9-1.4
		c0.7-0.4,1.5-0.5,2.3-0.5c1.6,0,2.8,0.5,3.7,1.4C471.2,64.1,471.6,65.3,471.6,66.7z"/>
	<path class="st1" d="M499.9,88.3c0,0.9-0.1,2-0.2,3.5c-0.1,1.4-0.4,3.1-0.8,5h-17.3c-0.1,0.9-0.2,1.6-0.2,2.2c0,1.5,0.3,2.8,1,3.8
		s1.7,1.5,3,1.5c1.2,0,2.2-0.4,3-1.2c0.8-0.8,1.5-1.6,2.1-2.6l6.6,4.3c-1.2,2.2-2.9,4.1-5,5.6c-2.2,1.5-4.8,2.3-7.8,2.3
		c-3.9,0-6.9-1.2-9-3.6s-3.2-5.8-3.2-10.1c0-3.1,0.4-6,1.3-8.8c0.8-2.8,2-5.2,3.5-7.3c1.5-2.1,3.2-3.8,5.3-5c2-1.2,4.2-1.8,6.6-1.8
		c2,0,3.7,0.3,5.1,0.9s2.6,1.5,3.5,2.6s1.5,2.4,2,3.9C499.7,84.9,499.9,86.5,499.9,88.3z M491.5,88.1c0-1.4-0.3-2.5-0.8-3.4
		c-0.5-0.8-1.3-1.2-2.4-1.2c-0.8,0-1.4,0.2-2.1,0.7c-0.6,0.4-1.2,1-1.6,1.7c-0.5,0.7-0.9,1.5-1.2,2.3c-0.3,0.8-0.6,1.7-0.7,2.5h8.4
		c0.1-0.3,0.2-0.7,0.2-1.2C491.4,88.9,491.5,88.5,491.5,88.1z"/>
	<path class="st1" d="M534.9,111.7h-10l-0.4-21.3h-0.1l-8.6,21.3h-9.7l-1.2-34.5h9.6l-0.3,22.6h0.1l8.4-22.6h8.2l0.3,22.6h0.1
		l7.7-22.6h9.8L534.9,111.7z"/>
	<path class="st1" d="M567.8,85.8c-0.6-0.7-1.4-1.2-2.3-1.6c-0.9-0.4-1.9-0.6-3-0.6c-1,0-1.9,0.3-2.7,0.9s-1.2,1.5-1.2,2.6
		c0,0.9,0.3,1.6,0.9,2.2c0.6,0.5,1.6,1.1,3,1.8c0.9,0.5,1.8,1,2.6,1.6s1.6,1.2,2.2,2c0.6,0.8,1.2,1.6,1.6,2.6s0.6,2.1,0.6,3.3
		c0,2.3-0.4,4.2-1.2,5.7c-0.8,1.6-1.9,2.8-3.1,3.8c-1.3,1-2.7,1.7-4.2,2.1s-3.1,0.6-4.5,0.6c-2.3,0-4.4-0.4-6.4-1.2
		c-2-0.8-3.7-1.9-5-3.2l5.4-6.2c0.8,0.9,1.7,1.6,2.8,2.2c1,0.6,2.1,0.8,3.3,0.8c1.1,0,2-0.3,2.8-0.9s1.2-1.5,1.2-2.7
		c0-1-0.4-1.9-1.2-2.6s-1.9-1.4-3.3-2.1c-0.9-0.4-1.7-0.9-2.5-1.4s-1.4-1.2-2-1.9c-0.6-0.7-1-1.5-1.4-2.4c-0.3-0.9-0.5-2-0.5-3.2
		c0-2.1,0.4-4,1.2-5.5s1.9-2.8,3.2-3.7c1.3-1,2.7-1.6,4.3-2.1s3.1-0.7,4.6-0.7c2,0,3.9,0.3,5.7,0.9c1.7,0.6,3.2,1.4,4.2,2.5
		L567.8,85.8z"/>
</g>
</svg>
